<?xml version="1.0" encoding="UTF-8" ?>
<!DOCTYPE svg PUBLIC "-//W3C//DTD SVG 1.1//EN" "http://www.w3.org/Graphics/SVG/1.1/DTD/svg11.dtd">
<svg width="859pt" height="859pt" viewBox="0 0 859 859" version="1.1" xmlns="http://www.w3.org/2000/svg">
<path fill="#fdfeff" d=" M 0.00 0.00 L 859.00 0.00 L 859.00 425.05 C 858.34 384.81 852.53 344.60 840.87 306.05 C 819.56 234.67 779.05 169.19 724.90 118.05 C 670.22 66.09 601.58 28.92 528.08 11.85 C 437.38 -9.47 339.76 -0.47 254.75 37.79 C 210.02 57.78 168.79 85.55 133.40 119.42 C 73.22 176.73 30.22 251.90 11.72 332.95 C -3.15 397.64 -2.84 465.77 12.68 530.32 C 30.13 603.33 67.41 671.42 119.29 725.66 C 169.36 778.31 233.02 817.96 302.46 839.43 C 376.13 862.33 456.00 864.76 530.98 846.68 C 587.29 833.13 640.74 807.89 687.04 773.10 C 736.06 736.43 777.07 689.13 806.46 635.42 C 839.06 576.03 857.15 508.75 858.73 441.02 C 858.73 438.70 858.84 436.39 859.00 434.08 L 859.00 859.00 L 0.00 859.00 L 0.00 0.00 Z" />
<path fill="#0297dc" d=" M 254.75 37.79 C 339.76 -0.47 437.38 -9.47 528.08 11.85 C 601.58 28.92 670.22 66.09 724.90 118.05 C 779.05 169.19 819.56 234.67 840.87 306.05 C 852.53 344.60 858.34 384.81 859.00 425.05 L 859.00 434.08 C 858.84 436.39 858.73 438.70 858.73 441.02 C 857.15 508.75 839.06 576.03 806.46 635.42 C 777.07 689.13 736.06 736.43 687.04 773.10 C 640.74 807.89 587.29 833.13 530.98 846.68 C 456.00 864.76 376.13 862.33 302.46 839.43 C 233.02 817.96 169.36 778.31 119.29 725.66 C 67.41 671.42 30.13 603.33 12.68 530.32 C -2.84 465.77 -3.15 397.64 11.72 332.95 C 30.22 251.90 73.22 176.73 133.40 119.42 C 168.79 85.55 210.02 57.78 254.75 37.79 Z" />
<path fill="#fdfeff" d=" M 481.20 184.19 C 489.93 177.50 501.18 175.32 511.96 175.25 C 563.32 175.25 614.68 175.24 666.04 175.25 C 678.95 175.50 689.99 183.52 699.08 191.97 C 708.23 201.16 716.67 211.86 720.18 224.55 C 721.58 232.99 720.36 241.85 717.55 249.90 C 715.22 256.56 709.52 262.71 702.08 262.93 C 662.74 265.15 623.39 267.15 584.04 269.05 C 593.54 304.38 603.01 339.71 612.53 375.03 C 645.31 371.56 678.10 367.95 710.97 365.38 C 722.69 364.01 734.12 369.53 742.51 377.39 C 754.75 388.70 761.84 404.67 764.69 420.90 C 767.55 437.43 759.29 455.57 744.33 463.48 C 739.30 466.27 733.45 466.56 727.92 467.59 C 698.63 472.26 669.32 476.81 639.98 481.17 C 650.51 536.72 661.30 592.23 670.86 647.96 C 674.26 664.19 671.18 681.25 664.20 696.12 C 658.36 708.55 648.48 719.88 635.16 724.33 C 623.16 728.20 609.56 727.60 598.24 721.87 C 586.68 716.02 578.27 705.23 573.44 693.38 C 569.20 683.42 568.33 672.51 566.02 662.03 C 547.34 567.74 527.66 473.63 506.20 379.93 C 495.55 334.35 484.93 288.70 471.42 243.86 C 469.36 236.23 465.66 228.93 465.44 220.91 C 464.71 207.19 469.95 192.57 481.20 184.19 Z" />
<path fill="#fdfeff" d=" M 340.84 191.40 C 354.77 190.01 368.82 187.77 382.81 189.72 C 396.86 191.35 410.65 197.15 420.66 207.33 C 430.14 217.06 436.19 229.51 441.10 242.02 C 448.14 262.86 453.25 284.29 458.71 305.58 C 479.75 391.62 498.53 478.20 517.20 564.78 C 525.10 601.53 532.88 638.30 540.58 675.09 C 541.64 680.69 543.31 686.25 543.26 692.00 C 543.65 709.11 539.18 726.92 528.39 740.48 C 519.25 752.06 504.66 758.79 490.01 759.14 C 473.14 758.96 455.14 754.45 443.19 741.81 C 431.78 730.00 427.61 713.53 424.38 697.92 C 412.04 639.77 400.59 581.44 389.21 523.09 C 346.93 531.06 304.70 539.35 262.40 547.27 C 245.75 549.47 228.07 547.05 213.37 538.59 C 202.16 532.13 193.67 521.37 189.57 509.13 C 184.17 493.42 183.78 475.11 192.33 460.42 C 201.36 444.91 217.94 433.91 235.75 431.68 C 278.56 424.38 321.46 417.60 364.33 410.63 C 354.92 372.06 345.35 333.53 335.88 294.97 C 287.00 301.95 238.12 308.95 189.18 315.56 C 173.02 318.23 156.03 315.21 141.57 307.59 C 129.65 301.37 120.13 290.45 116.40 277.44 C 112.79 264.75 112.67 250.28 119.50 238.62 C 125.05 228.85 134.71 222.21 144.89 217.95 C 154.44 213.95 164.67 211.94 174.90 210.57 C 230.08 203.12 285.49 197.41 340.84 191.40 Z" />
</svg>